<svg width="32" height="32" viewBox="0 0 32 32" fill="none" xmlns="http://www.w3.org/2000/svg">
<path fill-rule="evenodd" clip-rule="evenodd" d="M16.0009 8.95969C12.8198 8.95969 10.2409 11.5385 10.2409 14.7197C10.2409 17.9008 12.8198 20.4797 16.0009 20.4797C19.1821 20.4797 21.7609 17.9008 21.7609 14.7197C21.7609 11.5385 19.1821 8.95969 16.0009 8.95969ZM8.96094 14.7197C8.96094 10.8316 12.1129 7.67969 16.0009 7.67969C19.889 7.67969 23.0409 10.8316 23.0409 14.7197C23.0409 18.6078 19.889 21.7597 16.0009 21.7597C12.1129 21.7597 8.96094 18.6078 8.96094 14.7197Z" fill="#15181C"/>
<path fill-rule="evenodd" clip-rule="evenodd" d="M16.0002 21.7605C13.9915 21.7605 12.022 22.3163 10.3097 23.3665C8.59742 24.4166 7.20911 25.9201 6.29848 27.7105C6.13824 28.0255 5.75293 28.151 5.43788 27.9908C5.12283 27.8305 4.99733 27.4452 5.15758 27.1302C6.1753 25.1292 7.72686 23.4489 9.64052 22.2753C11.5542 21.1017 13.7553 20.4805 16.0002 20.4805C18.245 20.4805 20.4461 21.1017 22.3598 22.2753C24.2735 23.4489 25.825 25.1292 26.8428 27.1301C27.003 27.4452 26.8775 27.8305 26.5625 27.9907C26.2474 28.151 25.8621 28.0255 25.7019 27.7104C24.7912 25.92 23.4029 24.4166 21.6906 23.3664C19.9783 22.3163 18.0088 21.7605 16.0002 21.7605Z" fill="#15181C"/>
<path fill-rule="evenodd" clip-rule="evenodd" d="M16 1.28C7.87037 1.28 1.28 7.87037 1.28 16C1.28 24.1296 7.87037 30.72 16 30.72C24.1296 30.72 30.72 24.1296 30.72 16C30.72 7.87037 24.1296 1.28 16 1.28ZM0 16C0 7.16344 7.16344 0 16 0C24.8366 0 32 7.16344 32 16C32 24.8366 24.8366 32 16 32C7.16344 32 0 24.8366 0 16Z" fill="#CCCED3"/>
</svg>
