<svg width="9" height="10" viewBox="0 0 9 10" fill="none" xmlns="http://www.w3.org/2000/svg">
<path fill-rule="evenodd" clip-rule="evenodd" d="M1.875 3.92857C1.25368 3.92857 0.75 4.40827 0.75 5C0.75 5.59173 1.25368 6.07143 1.875 6.07143C2.49632 6.07143 3 5.59173 3 5C3 4.40827 2.49632 3.92857 1.875 3.92857ZM0 5C0 4.01378 0.839466 3.21429 1.875 3.21429C2.91053 3.21429 3.75 4.01378 3.75 5C3.75 5.98622 2.91053 6.78571 1.875 6.78571C0.839466 6.78571 0 5.98622 0 5Z" fill="black"/>
<path fill-rule="evenodd" clip-rule="evenodd" d="M7.125 7.14286C6.50368 7.14286 6 7.62255 6 8.21429C6 8.80602 6.50368 9.28571 7.125 9.28571C7.74632 9.28571 8.25 8.80602 8.25 8.21429C8.25 7.62255 7.74632 7.14286 7.125 7.14286ZM5.25 8.21429C5.25 7.22806 6.08947 6.42857 7.125 6.42857C8.16053 6.42857 9 7.22806 9 8.21429C9 9.20051 8.16053 10 7.125 10C6.08947 10 5.25 9.20051 5.25 8.21429Z" fill="black"/>
<path fill-rule="evenodd" clip-rule="evenodd" d="M7.125 0.714286C6.50368 0.714286 6 1.19398 6 1.78571C6 2.37745 6.50368 2.85714 7.125 2.85714C7.74632 2.85714 8.25 2.37745 8.25 1.78571C8.25 1.19398 7.74632 0.714286 7.125 0.714286ZM5.25 1.78571C5.25 0.799492 6.08947 0 7.125 0C8.16053 0 9 0.799492 9 1.78571C9 2.77194 8.16053 3.57143 7.125 3.57143C6.08947 3.57143 5.25 2.77194 5.25 1.78571Z" fill="black"/>
<path fill-rule="evenodd" clip-rule="evenodd" d="M6.17875 2.36504C6.29075 2.53096 6.24031 2.75193 6.0661 2.85859L3.33933 4.52805C3.16512 4.63472 2.9331 4.58668 2.82111 4.42076C2.70911 4.25485 2.75955 4.03388 2.93376 3.92721L5.66053 2.25775C5.83474 2.15109 6.06676 2.19912 6.17875 2.36504Z" fill="black"/>
<path fill-rule="evenodd" clip-rule="evenodd" d="M2.82111 5.57924C2.9331 5.41332 3.16512 5.36528 3.33933 5.47195L6.0661 7.14141C6.24031 7.24807 6.29075 7.46904 6.17875 7.63496C6.06676 7.80088 5.83474 7.84891 5.66053 7.74225L2.93376 6.07279C2.75955 5.96612 2.70911 5.74515 2.82111 5.57924Z" fill="black"/>
</svg>
